PathFileType	4	(X/Y/Z)	C:\Users\chris\Documents\GitHub\baseballds\vids\pitch7_Sports2D\pitch7_Sports2D_px_person00.trc
DataRate	CameraRate	NumFrames	NumMarkers	Units	OrigDataRate	OrigDataStartFrame	OrigNumFrames
30	30	9	22	m	30	206	236
Frame#	Time	Hip			RHip			RKnee			RAnkle			RBigToe			RSmallToe			RHeel			LHip			LKnee			LAnkle			LBigToe			LSmallToe			LHeel			Neck			Head			Nose			RShoulder			RElbow			RWrist			LShoulder			LElbow			LWrist		
		X1	Y1	Z1	X2	Y2	Z2	X3	Y3	Z3	X4	Y4	Z4	X5	Y5	Z5	X6	Y6	Z6	X7	Y7	Z7	X8	Y8	Z8	X9	Y9	Z9	X10	Y10	Z10	X11	Y11	Z11	X12	Y12	Z12	X13	Y13	Z13	X14	Y14	Z14	X15	Y15	Z15	X16	Y16	Z16	X17	Y17	Z17	X18	Y18	Z18	X19	Y19	Z19	X20	Y20	Z20	X21	Y21	Z21	X22	Y22	Z22
206	6.866666666666666	1104.4994352944123	613.1398970402556	0.0	1049.9481413221702	630.4762917586038	0.0	956.2385480623157	785.3833811125245	0.0	812.2009727764619	873.4931219336684	0.0	790.0035747597315	942.6147979075438	0.0	765.0658400185041	922.7163746540118	0.0	799.8535412088913	876.018227895988	0.0	1158.1112181370386	621.2954762746497	0.0	1301.3959421567242	743.3764945628633	0.0	1416.2965739262193	911.1708926058811	0.0	1513.6831256298453	898.5697289555716	0.0	1507.803760841965	894.3995676209703	0.0	1419.5800634029258	940.7811492699188	0.0	1070.2552424552302	386.2988962129326	0.0	1075.182305105277	272.7125048090949	0.0	1127.1211633804598	324.3160354750727	0.0	988.2436889017841	412.6066889297133	0.0	883.3206370797151	419.63373908487824	0.0	830.1794655660404	472.32783950516165	0.0	1161.333350823719	385.31288385480843	0.0	1277.9059891007469	339.93227435161054	0.0	1378.3069783693522	254.431880919872	0.0
207	6.8999999999999995	1145.0627301181742	617.0348818558369	0.0	1089.2009270228275	637.0182627258112	0.0	992.4989693108269	796.5299049940738	0.0	825.0349447500532	870.7188854766955	0.0	789.3055163435355	942.0679583893082	0.0	769.9500239298036	922.9263494548479	0.0	811.8626817115448	870.5526936995244	0.0	1198.6799692960544	625.1702306497173	0.0	1345.2594242659607	737.375738814475	0.0	1421.5007489238767	916.9123258904581	0.0	1513.3129655861978	916.1772266455753	0.0	1508.1690015413558	909.7716432808787	0.0	1416.663105868416	943.1536955458197	0.0	1108.0828207357663	377.9107846633662	0.0	1114.2082154557595	264.5501187431678	0.0	1167.8892546553852	319.66598680734455	0.0	1026.3362121393166	405.48751876538915	0.0	922.2176721141007	399.8522832555193	0.0	914.5550928862112	395.8040262561928	0.0	1201.4780863569727	383.4668361823423	0.0	1315.8039388958737	365.98860206366726	0.0	1415.1845625394797	302.3314244667684	0.0
208	6.933333333333334	1187.1637234539394	622.1279148568951	0.0	1132.7344521181178	642.9828949051581	0.0	1031.9079069110962	803.485555407132	0.0	852.4896357004359	856.3648861880044	0.0	796.335909023586	934.6063330469578	0.0	782.3896064849376	914.6168826194305	0.0	839.6225419475986	851.7180604103946	0.0	1239.5172772764415	630.935583424004	0.0	1381.8754921326934	735.4240987107892	0.0	1420.8449642334353	923.4703476950892	0.0	1507.5016683706249	938.0631059345188	0.0	1503.6938958937537	929.8015778849534	0.0	1408.545846514274	948.6052179425133	0.0	1153.3121329721423	371.6753093604657	0.0	1160.1873738154384	258.3020536388184	0.0	1215.3341570193402	315.67163324914884	0.0	1071.9233057435995	404.5700267423052	0.0	957.0642563449528	396.60769276293564	0.0	1002.5613682168795	345.99963563406504	0.0	1247.4161710119524	385.1247340977332	0.0	1352.2847038282564	405.4612033067364	0.0	1437.6682697365623	370.355430108492	0.0
209	6.966666666666667	1228.6240588847613	627.4253663489948	0.0	1178.6134612885805	646.1540500731182	0.0	1074.7028715173146	807.5971100461313	0.0	896.2704644999061	830.5674892387883	0.0	820.9173603423005	912.2047165917388	0.0	810.9026373987527	889.3349391335491	0.0	884.1425536073023	818.8529886955921	0.0	1278.354526301572	638.303622340029	0.0	1407.4560261458646	737.3425220344033	0.0	1421.7672197798977	927.5053458829319	0.0	1503.7374706284172	956.1537490411826	0.0	1501.3978557320597	946.8599750790224	0.0	1405.2218102800575	953.01299510876	0.0	1206.0833799147454	370.1646467194927	0.0	1211.5261780602984	257.51780705855197	0.0	1265.8003114394312	312.70510902824736	0.0	1128.131279841533	404.3584209146469	0.0	995.3879699585791	398.61458041861215	0.0	1063.8181024145097	330.7755114105863	0.0	1294.5611265446241	394.34108193516215	0.0	1374.3782878476777	457.68968277984135	0.0	1441.4458916678152	445.4894272986782	0.0
210	7.0	1266.117006797358	631.3959908737104	0.0	1222.8118249727368	645.6682247337727	0.0	1119.7706382942108	813.2676011968971	0.0	952.1952867570725	801.0479093138692	0.0	864.3015204072467	874.2577163400688	0.0	857.7748210141885	848.5512774590716	0.0	941.6653245260381	781.4983062936279	0.0	1310.8002933460057	645.1507864896344	0.0	1423.1459148548192	740.5415561179775	0.0	1425.9610099194058	927.9064363770134	0.0	1504.1504304791993	965.4502995587418	0.0	1501.8687681026668	956.1142383069232	0.0	1407.8312481163703	953.2218799653884	0.0	1260.2642300122918	373.4003520495286	0.0	1264.2732379751396	263.3425010706775	0.0	1315.0944427344753	315.11445336715633	0.0	1195.5027409699849	399.21750168519645	0.0	1067.474418805968	389.7143396121152	0.0	1111.8212985041869	331.5650355246396	0.0	1331.2676371259565	409.3510434614395	0.0	1371.6337011233156	513.1182853260442	0.0	1429.8889536397019	514.0472799182971	0.0
211	7.033333333333333	1295.498689412145	632.6236203858482	0.0	1260.6541787658284	641.972218674022	0.0	1165.5245781481274	822.0194435966132	0.0	1012.3846991845992	775.87229072066	0.0	920.6721504652753	830.1483035228423	0.0	917.5782982060632	803.9787574508233	0.0	1003.383751881935	751.7616279683235	0.0	1333.5894048821535	648.5561074958891	0.0	1432.934170529052	743.1115802324579	0.0	1431.0595109004407	927.348156418537	0.0	1506.6114224705336	967.3303801023139	0.0	1503.0913212595651	958.6556289894115	0.0	1411.7398987358467	950.8599046831173	0.0	1308.9786763838033	379.64779239031407	0.0	1315.7053793626233	273.60991607668615	0.0	1360.9066160295388	326.78034484867504	0.0	1270.835088450524	393.6494574498323	0.0	1202.31442170732	365.9996877852698	0.0	1207.0950023925898	321.15190793885705	0.0	1348.6258214266986	424.3842993229724	0.0	1350.8429558414282	551.3530891923884	0.0	1412.6309336517033	562.724759490771	0.0
212	7.066666666666666	1314.0892638633231	630.8769261034074	0.0	1289.2568590206247	636.6515741529977	0.0	1208.2019270480414	830.5030480540966	0.0	1068.0484254945766	756.283366019353	0.0	979.9524636355112	791.3953533130273	0.0	979.2108794014454	767.2789224399692	0.0	1059.9152055276904	731.6728844716222	0.0	1347.9472620514837	647.5429043969876	0.0	1439.3531937659573	744.6057282199939	0.0	1434.3541291001316	927.7338909163192	0.0	1508.561593715915	966.292810482161	0.0	1504.0496082818863	958.6437819156835	0.0	1413.358383586927	949.5054722194158	0.0	1347.567357756042	383.57214949856075	0.0	1356.9027134861335	284.0445654585247	0.0	1399.1544428335158	339.68453629540056	0.0	1344.655922361186	391.73837500535615	0.0	1373.5919392761562	341.3847955987415	0.0	1378.953453211754	298.1066192271759	0.0	1347.3109038229886	434.5553837844153	0.0	1327.5963346185413	558.1533284317607	0.0	1404.2223467219617	584.5106249874202	0.0
213	7.1	1323.661931661205	624.8872209914268	0.0	1308.1261522064	628.7960374342088	0.0	1242.4419563436136	832.3227547536222	0.0	1111.6169980632778	737.8283134100213	0.0	1030.2651251363982	761.9500873941103	0.0	1030.8635631332475	741.1431571454302	0.0	1105.4504676180206	713.6237307080956	0.0	1356.4652549416294	640.9717783864614	0.0	1441.495592250345	745.1053618423635	0.0	1434.6865814355822	927.3549681155297	0.0	1508.3595465179608	965.0999937410048	0.0	1503.5157991941162	958.5190057147609	0.0	1412.5593360471935	949.5569238310687	0.0	1376.6962519593264	378.9223595709816	0.0	1383.3043348000974	289.0770271581316	0.0	1428.2660662376325	341.09630143909175	0.0	1406.3356867659322	386.9325918776615	0.0	1511.953464937475	336.2488197106268	0.0	1568.6150117552384	301.0384939894247	0.0	1339.846047952326	435.511863102329	0.0	1325.5566300753267	542.8322805172929	0.0	1424.7312342748673	579.9118206040587	0.0
214	7.133333333333333	1330.2245595310135	610.2659130038695	0.0	1321.2087750006335	612.7027596130304	0.0	1263.8491925811873	821.8635398262599	0.0	1139.3163783984708	715.8283659231658	0.0	1062.4574130134672	735.7954240951437	0.0	1064.7873851258764	719.6053056878591	0.0	1136.2198989405242	689.9575711158427	0.0	1357.6209771409608	623.5949127953866	0.0	1436.7680631567505	744.8607461978794	0.0	1432.5814518187601	924.6633857151297	0.0	1506.1699210147701	964.1888132044571	0.0	1500.4501385286064	957.800994302823	0.0	1410.7188994395324	948.5433345141511	0.0	1402.6477349885993	366.6364341173155	0.0	1408.6968592159942	283.5937093365118	0.0	1454.6285033891193	331.4711416846069	0.0	1453.66257573374	376.59702503958516	0.0	1580.403949203052	363.4147991681085	0.0	1682.4378640851885	360.33983160069226	0.0	1341.8339302918039	424.4439320176616	0.0	1354.778690631659	522.9396790716528	0.0	1467.6794394595588	555.7421441653933	0.0
